<svg xmlns="http://www.w3.org/2000/svg" width="34.187" height="39.128" viewBox="0 0 34.187 39.128">
  <g id="Group_24" data-name="Group 24" transform="translate(-750.423 -293.079)">
    <path id="Outline_24" data-name="Outline 24" d="M763.031,331.526h-6.6c-3.591-.081-6.015-8.642-5.412-19.12s4-18.907,7.594-18.826h6.6" fill="none" stroke="#fff" stroke-miterlimit="2" stroke-width="1"/>
    <g id="Group_23" data-name="Group 23" transform="translate(767.972 306.449)">
      <path id="Outline_27" data-name="Outline 27" d="M12.507.268c6.908.148,12.533,2.185,12.565,4.55S19.53,8.98,12.622,8.832.089,6.647.058,4.282,5.6.12,12.507.268Z" transform="translate(6.381 24.979) rotate(-87.936)" fill="none" stroke="#fff" stroke-width="1"/>
      <path id="Outline_25" data-name="Outline 25" d="M778.635,339.245H771.6c-2.364-.053-3.96-5.688-3.563-12.586s2.635-12.446,5-12.392h7.039" transform="translate(-767.972 -314.17)" fill="none" stroke="#fff" stroke-miterlimit="2" stroke-width="1"/>
    </g>
    <path id="Outline_26" data-name="Outline 26" d="M768.257,325.27c-1.416,3.878-3.293,6.3-5.226,6.255-3.592-.081-6.015-8.642-5.413-19.12s4-18.907,7.6-18.826c3.075.07,5.293,6.353,5.49,14.733" fill="none" stroke="#fff" stroke-miterlimit="2" stroke-width="1"/>
  </g>
</svg>
