<svg xmlns="http://www.w3.org/2000/svg" width="38.069" height="31.984" viewBox="0 0 38.069 31.984">
  <g id="Group_86" data-name="Group 86" transform="translate(-820.501 -560.607)">
    <path id="Outline_89" data-name="Outline 89" d="M846.835,586.473a14.916,14.916,0,0,1-5.363,2.256,15.11,15.11,0,0,1-6.046,0,14.95,14.95,0,0,1-5.363-2.256,15.1,15.1,0,0,1-4.051-4.053,14.989,14.989,0,0,1,0-16.773" transform="translate(1.084 2.565)" fill="none" stroke="#75de6b" stroke-linecap="round" stroke-miterlimit="10" stroke-width="1.984"/>
    <path id="Outline_90" data-name="Outline 90" d="M827.5,564.161a14.975,14.975,0,0,1,2.548-1.382,14.785,14.785,0,0,1,2.815-.874,15.11,15.11,0,0,1,6.046,0,14.92,14.92,0,0,1,5.363,2.256,15.033,15.033,0,0,1,6.309,15.461,14.883,14.883,0,0,1-2.258,5.363" transform="translate(3.649)" fill="none" stroke="#75de6b" stroke-linecap="round" stroke-miterlimit="10" stroke-width="1.984"/>
    <path id="Outline_91" data-name="Outline 91" d="M839.266,572.688l1.607,5.271,5.353-1.631" transform="translate(11.106 7.027)" fill="none" stroke="#75de6b" stroke-linecap="round" stroke-miterlimit="10" stroke-width="1.984"/>
    <path id="Outline_92" data-name="Outline 92" d="M828.7,570.918l-1.607-5.271-5.353,1.632" transform="translate(0 2.565)" fill="none" stroke="#75de6b" stroke-linecap="round" stroke-miterlimit="10" stroke-width="1.984"/>
  </g>
</svg>
