<svg xmlns="http://www.w3.org/2000/svg" width="38.945" height="38.682" viewBox="0 0 38.945 38.682">
  <g id="Group_20" data-name="Group 20" transform="translate(-503.451 -287.762)">
    <path id="Outline_12" data-name="Outline 12" d="M523.5,311.425,541.413,288.5h-18.7L504,311.425v3.162h1.581a4.216,4.216,0,1,1,0,8.432H504v3.162h19.5V323.02h-1.581a4.216,4.216,0,1,1,0-8.432H523.5Z" transform="translate(-0.049 -0.238)" fill="none" stroke="#fff" stroke-miterlimit="10" stroke-width="1"/>
    <path id="Outline_13" data-name="Outline 13" d="M541.11,314.45,559.234,290.9V288" transform="translate(-17.602 0)" fill="none" stroke="#fff" stroke-miterlimit="10" stroke-width="1"/>
    <path id="Outline_14" data-name="Outline 14" d="M541.1,334.557l18.392-23.285v-2.9h-1.581A4.165,4.165,0,0,1,554.121,306" transform="translate(-17.598 -8.517)" fill="none" stroke="#fff" stroke-miterlimit="10" stroke-width="1"/>
    <line id="Line_2" data-name="Line 2" y1="22.925" x2="18.446" transform="translate(523.45 299.856)" fill="none" stroke="#fff" stroke-miterlimit="10" stroke-width="1"/>
    <line id="Line_3" data-name="Line 3" y1="6.331" x2="5.226" transform="translate(503.896 316.354)" fill="none" stroke="#fff" stroke-miterlimit="10" stroke-width="1"/>
    <line id="Line_4" data-name="Line 4" x2="19.5" transform="translate(503.951 311.187)" fill="none" stroke="#fff" stroke-miterlimit="1" stroke-width="1"/>
  </g>
</svg>
