<svg id="Group_81" data-name="Group 81" xmlns="http://www.w3.org/2000/svg" width="30.825" height="24.386" viewBox="0 0 30.825 24.386">
  <path id="Outline_84" data-name="Outline 84" d="M874.108,431.816c-5.558,0-10.063,3.779-10.063,8.441a7.24,7.24,0,0,0,.756,3.2.613.613,0,0,1,.045.427l-1.008,3.763a.627.627,0,0,0,.768.768l3.8-1.019a.606.606,0,0,1,.438.05,11.475,11.475,0,0,0,5.261,1.251c5.557,0,10.062-3.78,10.062-8.441S879.665,431.816,874.108,431.816Z" transform="translate(-853.345 -431.816)"/>
  <path id="Outline_85" data-name="Outline 85" d="M872.713,450.962a7.56,7.56,0,0,0,.451-1.184,12.55,12.55,0,0,1-4.657-1.233l-3.607.967a1.76,1.76,0,0,1-1.854-.631,1.745,1.745,0,0,1-.3-1.527l.956-3.572a8.335,8.335,0,0,1-.788-3.525c0-.31.055-.918.055-.918-5.351.2-9.621,3.885-9.621,8.422,0,4.662,4.5,8.441,10.062,8.441a11.462,11.462,0,0,0,5.26-1.251.606.606,0,0,1,.438-.049l3.8,1.019a.627.627,0,0,0,.768-.769l-1.008-3.763A.614.614,0,0,1,872.713,450.962Z" transform="translate(-853.345 -431.816)"/>
  <g id="Group_80" data-name="Group 80" transform="translate(15.584 7.479)">
    <rect id="Rect_72" data-name="Rect 72" width="1.923" height="1.923" rx="0.812" transform="translate(4.112)" fill="#fff"/>
    <rect id="Rect_73" data-name="Rect 73" width="1.923" height="1.923" rx="0.812" fill="#fff"/>
    <rect id="Rect_74" data-name="Rect 74" width="1.923" height="1.923" rx="0.812" transform="translate(8.224)" fill="#fff"/>
  </g>
</svg>
