<svg xmlns="http://www.w3.org/2000/svg" width="32.102" height="36.984" viewBox="0 0 32.102 36.984">
  <g id="Group_88" data-name="Group 88" transform="translate(-923.342 -554.53)">
    <path id="Outline_96" data-name="Outline 96" d="M948.06,590.588a5.016,5.016,0,1,1-10.032,0c0-5.284,5.016-9.738,5.016-9.738S948.06,585.3,948.06,590.588Z" transform="translate(-2.748 -5.082)" fill="none" stroke="#75de6b" stroke-linecap="round" stroke-linejoin="round" stroke-width="1.984"/>
    <path id="Outline_97" data-name="Outline 97" d="M958.862,572.229a6.273,6.273,0,1,1-12.547,0c0-6.608,6.273-12.179,6.273-12.179S958.862,565.621,958.862,572.229Z" transform="translate(-4.41 -0.909)" fill="none" stroke="#75de6b" stroke-linecap="round" stroke-linejoin="round" stroke-width="1.984"/>
    <path id="Outline_98" data-name="Outline 98" d="M939.342,570.089a7.5,7.5,0,1,1-15.008,0c0-7.9,7.5-14.568,7.5-14.568S939.342,562.186,939.342,570.089Z" fill="none" stroke="#75de6b" stroke-linecap="round" stroke-linejoin="round" stroke-width="1.984"/>
  </g>
</svg>
