<svg xmlns="http://www.w3.org/2000/svg" width="19.122" height="18.278" viewBox="0 0 19.122 18.278">
  <g id="Group_79" data-name="Group 79" transform="translate(-2372.939 -422.83)">
    <path id="Outline_81" data-name="Outline 81" d="M837.426,565.491a2.136,2.136,0,1,0-.054,4.261h.027a2.137,2.137,0,1,0,.027-4.261Z" transform="translate(1537.832 -142.661)"/>
    <path id="Outline_82" data-name="Outline 82" d="M835.718,580.474h4.1v12.333h-4.1Z" transform="translate(1537.463 -151.699)"/>
    <path id="Outline_83" data-name="Outline 83" d="M859.558,579.744a5.136,5.136,0,0,0-3.694,2.078v-1.788h-4.1v12.333h4.1v-6.887a2.808,2.808,0,0,1,.135-1,2.244,2.244,0,0,1,2.1-1.5c1.483,0,2.076,1.131,2.076,2.789v6.6h4.1v-7.071C864.277,581.507,862.254,579.744,859.558,579.744Z" transform="translate(1527.785 -151.259)"/>
  </g>
</svg>
