<svg xmlns="http://www.w3.org/2000/svg" width="334.553" height="36.533" viewBox="0 0 334.553 36.533">
  <g id="Logo" transform="translate(-142 -97.525)">
    <path id="Outline_123" data-name="Outline 123" d="M573.871-163.321v11.254h4.174a4.425,4.425,0,0,1,4.424-4.425h11.374v21.481a4.424,4.424,0,0,1-4.425,4.424h0v3.794h18.089v-3.794h0a4.424,4.424,0,0,1-4.425-4.424v-21.481h11.375a4.425,4.425,0,0,1,4.425,4.425h4.173v-11.254Z" transform="translate(-146.5 260.849)" fill="#fff"/>
    <path id="Outline_124" data-name="Outline 124" d="M524.431-156.5a4.424,4.424,0,0,1,4.425,4.424h3.794v-11.254H486.314v36.533h46.335v-11.254h-3.794a4.425,4.425,0,0,1-4.425,4.425H494.884v-8.4h17.811v-6.071H494.884v-8.4Z" transform="translate(-125.36 260.85)" fill="#fff"/>
    <path id="Outline_125" data-name="Outline 125" d="M428.549-163.169l-21.487,20.916-21.486-20.916h-8.572v36.413h13v-3.788a4.424,4.424,0,0,1-4.424-4.424v-18.692l21.486,20.916,21.487-20.916v18.692a4.424,4.424,0,0,1-4.424,4.424v3.788h12.992v-36.413Z" transform="translate(-98.967 260.812)" fill="#fff"/>
    <path id="Outline_126" data-name="Outline 126" d="M235.783-156.5a4.424,4.424,0,0,1,4.425,4.424H244v-11.254H197.666v36.533H244v-11.254h-3.794a4.425,4.425,0,0,1-4.425,4.425H206.235v-8.4h17.812v-6.071H206.235v-8.4Z" transform="translate(-55.666 260.85)" fill="#fff"/>
    <path id="Outline_127" data-name="Outline 127" d="M326.022-154.132l10.205-9.037h10.29l-15.35,13.593Z" transform="translate(-86.657 260.812)" fill="#75de6b"/>
    <path id="Outline_128" data-name="Outline 128" d="M285.223-163.169h22.611v3.787H307.8a3.023,3.023,0,0,0-2,5.286l30.874,27.339H314.092v-3.788h0a3.023,3.023,0,0,0,2-5.286l-5.151-4.562-15.4,13.636H285.223l20.561-18.207Z" transform="translate(-76.807 260.812)" fill="#fff"/>
  </g>
</svg>
