<svg xmlns="http://www.w3.org/2000/svg" width="37.339" height="20.944" viewBox="0 0 37.339 20.944">
  <path id="Outline_78" data-name="Outline 78" d="M960.926,378.376a3.31,3.31,0,0,0-2.622-1.166,5.754,5.754,0,0,0-2.54.675l-9.369-3.892a8.1,8.1,0,0,0-6.276,0L930.7,377.9a5.772,5.772,0,0,0-2.577-.7h0a3.312,3.312,0,0,0-2.622,1.166c-1.782,2.116-1.011,6.345,1.755,9.629a9.367,9.367,0,0,0,4.258,3.021c1.456,1.226,4.908,3.279,11.741,3.279,6.937,0,10.387-2.115,11.8-3.333a9.475,9.475,0,0,0,4.11-2.967C961.937,384.721,962.708,380.492,960.926,378.376Zm-30.293,10.918v.262a9.515,9.515,0,0,1-2.609-2.2c-2.381-2.826-3.185-6.645-1.757-8.34a2.314,2.314,0,0,1,1.858-.811h0a5.092,5.092,0,0,1,2.507.789Zm20.809-.682a27.329,27.329,0,0,1-16.3.024.5.5,0,0,1,.336-.942,26.359,26.359,0,0,0,15.629-.022.5.5,0,1,1,.338.94Zm-16.605-4.384a.5.5,0,0,1,.638-.3A26.371,26.371,0,0,0,951.1,383.9a.5.5,0,1,1,.338.941,27.351,27.351,0,0,1-16.3.024A.5.5,0,0,1,934.837,384.228Zm16.605-3.157a27.337,27.337,0,0,1-16.3.025.5.5,0,0,1,.334-.942,26.374,26.374,0,0,0,15.63-.023.5.5,0,1,1,.338.94Zm6.963,6.29a9.6,9.6,0,0,1-2.524,2.15V378.953a5.018,5.018,0,0,1,2.423-.743,2.309,2.309,0,0,1,1.857.811C961.589,380.716,960.786,384.535,958.405,387.361Z" transform="translate(-924.545 -373.361)" fill="#fff"/>
</svg>
