<svg xmlns="http://www.w3.org/2000/svg" width="20" height="13.75" viewBox="0 0 20 13.75">
  <path id="Outline_5" data-name="Outline 5" d="M497.15,244.325c-.542-.965-1.131-1.143-2.33-1.21S490.611,243,488,243s-5.626.034-6.823.114-1.786.245-2.334,1.211-.846,2.624-.846,5.546v.01c0,2.91.287,4.582.846,5.536s1.136,1.14,2.333,1.221,4.21.111,6.824.111,5.62-.041,6.819-.11,1.787-.256,2.33-1.221c.564-.954.849-2.626.849-5.536v-.01c0-2.924-.285-4.584-.85-5.547Zm-11.65,9.3v-7.5l6.25,3.75Zm0,0" transform="translate(-478 -243)"/>
</svg>
